<mxfile host="app.diagrams.net" modified="2022-06-01T02:52:37.321Z" agent="5.0 (Windows NT 10.0; Win64; x64) AppleWebKit/537.36 (KHTML, like Gecko) Chrome/101.0.4951.64 Safari/537.36 Edg/101.0.1210.53" etag="o9m95Pi6RvGFW43EsTC5" version="18.2.0" type="github">
  <diagram id="5pMmDTiJDG32qlwOxD2e" name="Page-1">
    <mxGraphModel dx="1550" dy="827" grid="1" gridSize="10" guides="1" tooltips="1" connect="1" arrows="1" fold="1" page="1" pageScale="1" pageWidth="1169" pageHeight="827" math="0" shadow="0">
      <root>
        <mxCell id="0" />
        <mxCell id="1" parent="0" />
        <mxCell id="4DUy6sRK5zx7ygUDK_SV-6" style="edgeStyle=orthogonalEdgeStyle;rounded=0;orthogonalLoop=1;jettySize=auto;html=1;exitX=0;exitY=0.5;exitDx=0;exitDy=0;entryX=1;entryY=0.5;entryDx=0;entryDy=0;" parent="1" source="4DUy6sRK5zx7ygUDK_SV-1" target="4DUy6sRK5zx7ygUDK_SV-2" edge="1">
          <mxGeometry relative="1" as="geometry" />
        </mxCell>
        <mxCell id="4DUy6sRK5zx7ygUDK_SV-1" value="文件服务&lt;br&gt;IP1:PORT1" style="rounded=0;whiteSpace=wrap;html=1;" parent="1" vertex="1">
          <mxGeometry x="551" y="240" width="120" height="60" as="geometry" />
        </mxCell>
        <mxCell id="4DUy6sRK5zx7ygUDK_SV-7" style="edgeStyle=orthogonalEdgeStyle;rounded=0;orthogonalLoop=1;jettySize=auto;html=1;exitX=0;exitY=0.5;exitDx=0;exitDy=0;entryX=1;entryY=0.5;entryDx=0;entryDy=0;" parent="1" source="4DUy6sRK5zx7ygUDK_SV-2" target="4DUy6sRK5zx7ygUDK_SV-4" edge="1">
          <mxGeometry relative="1" as="geometry" />
        </mxCell>
        <mxCell id="4DUy6sRK5zx7ygUDK_SV-2" value="DMZ-NGINX&lt;br&gt;IP2:PORT2(out)&lt;br&gt;IP2:PORT9(in)" style="rounded=0;whiteSpace=wrap;html=1;" parent="1" vertex="1">
          <mxGeometry x="353" y="240" width="120" height="60" as="geometry" />
        </mxCell>
        <mxCell id="4DUy6sRK5zx7ygUDK_SV-14" style="edgeStyle=orthogonalEdgeStyle;rounded=0;orthogonalLoop=1;jettySize=auto;html=1;exitX=0.5;exitY=1;exitDx=0;exitDy=0;" parent="1" source="4DUy6sRK5zx7ygUDK_SV-4" target="4DUy6sRK5zx7ygUDK_SV-12" edge="1">
          <mxGeometry relative="1" as="geometry" />
        </mxCell>
        <mxCell id="4DUy6sRK5zx7ygUDK_SV-4" value="YUN-NGINX&lt;br&gt;&lt;font&gt;IP3:PORT3&lt;/font&gt;(out)&lt;br&gt;&lt;font color=&quot;#ff0000&quot;&gt;IP3:PORT8(in)&lt;/font&gt;" style="rounded=0;whiteSpace=wrap;html=1;fontColor=#000000;" parent="1" vertex="1">
          <mxGeometry x="101" y="240" width="120" height="60" as="geometry" />
        </mxCell>
        <mxCell id="4DUy6sRK5zx7ygUDK_SV-5" value="" style="endArrow=none;dashed=1;html=1;rounded=0;" parent="1" edge="1">
          <mxGeometry width="50" height="50" relative="1" as="geometry">
            <mxPoint x="301" y="780" as="sourcePoint" />
            <mxPoint x="301" y="20" as="targetPoint" />
          </mxGeometry>
        </mxCell>
        <mxCell id="4DUy6sRK5zx7ygUDK_SV-8" style="edgeStyle=orthogonalEdgeStyle;rounded=0;orthogonalLoop=1;jettySize=auto;html=1;exitX=1;exitY=0.5;exitDx=0;exitDy=0;entryX=0;entryY=0.5;entryDx=0;entryDy=0;" parent="1" source="4DUy6sRK5zx7ygUDK_SV-11" target="4DUy6sRK5zx7ygUDK_SV-9" edge="1">
          <mxGeometry relative="1" as="geometry">
            <mxPoint x="603" y="679" as="targetPoint" />
          </mxGeometry>
        </mxCell>
        <mxCell id="4DUy6sRK5zx7ygUDK_SV-9" value="文件服务&lt;br&gt;IP6:PORT6" style="rounded=0;whiteSpace=wrap;html=1;" parent="1" vertex="1">
          <mxGeometry x="551" y="489" width="120" height="60" as="geometry" />
        </mxCell>
        <mxCell id="4DUy6sRK5zx7ygUDK_SV-10" style="edgeStyle=orthogonalEdgeStyle;rounded=0;orthogonalLoop=1;jettySize=auto;html=1;exitX=1;exitY=0.5;exitDx=0;exitDy=0;entryX=0;entryY=0.5;entryDx=0;entryDy=0;" parent="1" source="4DUy6sRK5zx7ygUDK_SV-12" target="4DUy6sRK5zx7ygUDK_SV-11" edge="1">
          <mxGeometry relative="1" as="geometry">
            <mxPoint x="401" y="629" as="targetPoint" />
          </mxGeometry>
        </mxCell>
        <mxCell id="4DUy6sRK5zx7ygUDK_SV-11" value="DMZ-NGINX&lt;br&gt;IP5:PORT5&lt;span&gt;(in)&lt;br&gt;&lt;/span&gt;IP5:PORT6(out)&lt;span&gt;&lt;br&gt;&lt;/span&gt;" style="rounded=0;whiteSpace=wrap;html=1;fontColor=#000000;" parent="1" vertex="1">
          <mxGeometry x="353" y="489" width="120" height="60" as="geometry" />
        </mxCell>
        <mxCell id="4DUy6sRK5zx7ygUDK_SV-12" value="YUN-NGINX&lt;br&gt;&lt;font color=&quot;#00cc66&quot;&gt;IP4:PORT4(in)&lt;br&gt;&lt;/font&gt;IP4:PORT7(out)&lt;font color=&quot;#00cc66&quot;&gt;&lt;br&gt;&lt;/font&gt;" style="rounded=0;whiteSpace=wrap;html=1;" parent="1" vertex="1">
          <mxGeometry x="101" y="489" width="120" height="60" as="geometry" />
        </mxCell>
        <mxCell id="4DUy6sRK5zx7ygUDK_SV-13" value="" style="endArrow=none;dashed=1;html=1;dashPattern=1 3;strokeWidth=2;rounded=0;startArrow=none;" parent="1" source="4DUy6sRK5zx7ygUDK_SV-30" edge="1">
          <mxGeometry width="50" height="50" relative="1" as="geometry">
            <mxPoint x="-109" y="400" as="sourcePoint" />
            <mxPoint x="1140" y="400" as="targetPoint" />
          </mxGeometry>
        </mxCell>
        <mxCell id="4DUy6sRK5zx7ygUDK_SV-15" value="A行" style="text;html=1;align=center;verticalAlign=middle;resizable=0;points=[];autosize=1;strokeColor=none;fillColor=none;fontSize=27;" parent="1" vertex="1">
          <mxGeometry x="351" y="80" width="60" height="40" as="geometry" />
        </mxCell>
        <mxCell id="4DUy6sRK5zx7ygUDK_SV-16" value="B行" style="text;html=1;align=center;verticalAlign=middle;resizable=0;points=[];autosize=1;strokeColor=none;fillColor=none;fontSize=27;" parent="1" vertex="1">
          <mxGeometry x="351" y="618" width="60" height="40" as="geometry" />
        </mxCell>
        <mxCell id="4DUy6sRK5zx7ygUDK_SV-17" value="cfg.properties&lt;br&gt;ftWebUrl:IP3:PORT8&lt;br&gt;yunUrl:IP2:PORT2" style="text;html=1;align=left;verticalAlign=middle;resizable=0;points=[];autosize=1;strokeColor=none;fillColor=none;fontSize=16;" parent="1" vertex="1">
          <mxGeometry x="691" y="240" width="160" height="60" as="geometry" />
        </mxCell>
        <mxCell id="4DUy6sRK5zx7ygUDK_SV-18" value="解析path地址进行转发&lt;br&gt;gateway?path=&amp;nbsp;" style="text;html=1;align=left;verticalAlign=middle;resizable=0;points=[];autosize=1;strokeColor=none;fillColor=none;fontSize=16;fontStyle=1" parent="1" vertex="1">
          <mxGeometry x="81" y="180" width="180" height="40" as="geometry" />
        </mxCell>
        <mxCell id="4DUy6sRK5zx7ygUDK_SV-20" value="cfg.properties&lt;br&gt;ftWebUrl:&lt;font color=&quot;#00cc66&quot;&gt;IP4:PORT4&lt;/font&gt;&lt;br&gt;yunUrl:IP5:PORT6" style="text;html=1;align=left;verticalAlign=middle;resizable=0;points=[];autosize=1;strokeColor=none;fillColor=none;fontSize=16;" parent="1" vertex="1">
          <mxGeometry x="691" y="489" width="160" height="60" as="geometry" />
        </mxCell>
        <mxCell id="4DUy6sRK5zx7ygUDK_SV-22" value="&lt;div style=&quot;text-align: left&quot;&gt;&lt;b&gt;&lt;font color=&quot;#000000&quot;&gt;A行请求B行的文件，从交易报文获取&lt;/font&gt;IP4:PORT4&lt;font color=&quot;#000000&quot;&gt;的地址，进行拼接&lt;/font&gt;&lt;/b&gt;&lt;/div&gt;&lt;b&gt;&lt;font color=&quot;#000000&quot;&gt;curl -i http://IP2:PORT2/gateway?path=http://&lt;/font&gt;&lt;font color=&quot;#00cc00&quot;&gt;IP4:PORT4&lt;/font&gt;&lt;font color=&quot;#000000&quot;&gt;/bclc-file/index.jsp&lt;/font&gt;&lt;/b&gt;" style="text;html=1;align=center;verticalAlign=middle;resizable=0;points=[];autosize=1;strokeColor=none;fillColor=none;fontSize=16;fontColor=#00CC66;" parent="1" vertex="1">
          <mxGeometry x="541" y="180" width="580" height="40" as="geometry" />
        </mxCell>
        <mxCell id="4DUy6sRK5zx7ygUDK_SV-26" value="云 - A行" style="text;html=1;align=center;verticalAlign=middle;resizable=0;points=[];autosize=1;strokeColor=none;fillColor=none;fontSize=27;" parent="1" vertex="1">
          <mxGeometry x="141" y="80" width="110" height="40" as="geometry" />
        </mxCell>
        <mxCell id="4DUy6sRK5zx7ygUDK_SV-27" value="云 - B行" style="text;html=1;align=center;verticalAlign=middle;resizable=0;points=[];autosize=1;strokeColor=none;fillColor=none;fontSize=27;" parent="1" vertex="1">
          <mxGeometry x="141" y="618" width="110" height="40" as="geometry" />
        </mxCell>
        <mxCell id="4DUy6sRK5zx7ygUDK_SV-28" value="&lt;div style=&quot;text-align: left&quot;&gt;&lt;b&gt;&lt;font color=&quot;#000000&quot;&gt;B行请求A行的文件，从交易报文获取&lt;/font&gt;&lt;font color=&quot;#ff0000&quot;&gt;IP3:PORT8&lt;/font&gt;&lt;font color=&quot;#000000&quot;&gt;的地址，进行拼接&lt;/font&gt;&lt;/b&gt;&lt;/div&gt;&lt;b&gt;&lt;font color=&quot;#000000&quot;&gt;curl -i http://IP5:PORT6/gateway?path=http://&lt;/font&gt;&lt;font color=&quot;#ff0000&quot;&gt;IP3:PORT8&lt;/font&gt;&lt;font color=&quot;#000000&quot;&gt;/bclc-file/index.jsp&lt;/font&gt;&lt;/b&gt;" style="text;html=1;align=center;verticalAlign=middle;resizable=0;points=[];autosize=1;strokeColor=none;fillColor=none;fontSize=16;fontColor=#00CC66;" parent="1" vertex="1">
          <mxGeometry x="551" y="578" width="580" height="40" as="geometry" />
        </mxCell>
        <mxCell id="4DUy6sRK5zx7ygUDK_SV-30" value="云内转发，一般IP3和IP4为内网地址" style="text;html=1;align=center;verticalAlign=middle;resizable=0;points=[];autosize=1;strokeColor=none;fillColor=none;fontSize=16;fontColor=#000000;" parent="1" vertex="1">
          <mxGeometry x="50" y="391" width="270" height="20" as="geometry" />
        </mxCell>
        <mxCell id="4DUy6sRK5zx7ygUDK_SV-31" value="" style="endArrow=none;dashed=1;html=1;dashPattern=1 3;strokeWidth=2;rounded=0;" parent="1" target="4DUy6sRK5zx7ygUDK_SV-30" edge="1">
          <mxGeometry width="50" height="50" relative="1" as="geometry">
            <mxPoint x="20" y="400" as="sourcePoint" />
            <mxPoint x="1211" y="400" as="targetPoint" />
          </mxGeometry>
        </mxCell>
      </root>
    </mxGraphModel>
  </diagram>
</mxfile>
